<svg xmlns="http://www.w3.org/2000/svg" xmlns:dc="http://purl.org/dc/elements/1.1/" xmlns:ns2="http://creativecommons.org/ns#" xmlns:rdf="http://www.w3.org/1999/02/22-rdf-syntax-ns#" xmlns:xlink="http://www.w3.org/1999/xlink" width="347.0" height="320.0" viewBox="0.0 0.0 346.5 320.0">
<g id="graph0" class="graph" transform="scale(1.0 1.0) rotate(0) translate(4 316)">
<title>G</title>
<polygon fill="white" stroke="transparent" points="-4,4 -4,-316 342.5,-316 342.5,4 -4,4" />
<g id="clust3" class="cluster">
<title>cluster_legend</title>
</g>

<g id="node1" class="node">
<title>node1</title>
<svg width="159px" height="48px" viewBox="0 0 211.5 64.295625" version="1.1" preserveAspectRatio="xMinYMin meet" x="4.5" y="-167">
 <metadata>
  <rdf:RDF>
   <ns2:Work>
    <dc:type rdf:resource="http://purl.org/dc/dcmitype/StillImage" />
    <dc:date>2025-02-01T02:17:04.136991</dc:date>
    <dc:format>image/svg+xml</dc:format>
    <dc:creator>
     <ns2:Agent>
      <dc:title>Matplotlib v3.9.3, https://matplotlib.org/</dc:title>
     </ns2:Agent>
    </dc:creator>
   </ns2:Work>
  </rdf:RDF>
 </metadata>
 <defs>
  <style type="text/css">*{stroke-linejoin: round; stroke-linecap: butt}</style>
 </defs>
 <g id="figure_1">
  <g id="patch_1">
   <path d="M 0 64.295625  L 211.5 64.295625  L 211.5 -0  L 0 -0  z " style="fill: #ffffff" />
  </g>
  <g id="axes_1">
   <g id="patch_2">
    <path d="M 27.36 29.439375  L 211.5 29.439375  L 211.5 1.719375  L 27.36 1.719375  z " style="fill: #ffffff" />
   </g>
   <g id="patch_3">
    <path d="M 43.372174 29.439375  L 51.378261 29.439375  L 51.378261 3.138965  L 43.372174 3.138965  z " clip-path="url(#pe988eb551b)" style="fill: #fefebb; stroke: #444443; stroke-width: 0.5; stroke-linejoin: miter" />
   </g>
   <g id="patch_4">
    <path d="M 51.378261 29.439375  L 59.384348 29.439375  L 59.384348 29.439375  L 51.378261 29.439375  z " clip-path="url(#pe988eb551b)" style="fill: #fefebb; stroke: #444443; stroke-width: 0.5; stroke-linejoin: miter" />
   </g>
   <g id="patch_5">
    <path d="M 59.384348 29.439375  L 67.390435 29.439375  L 67.390435 29.439375  L 59.384348 29.439375  z " clip-path="url(#pe988eb551b)" style="fill: #fefebb; stroke: #444443; stroke-width: 0.5; stroke-linejoin: miter" />
   </g>
   <g id="patch_6">
    <path d="M 67.390435 29.439375  L 75.396522 29.439375  L 75.396522 29.439375  L 67.390435 29.439375  z " clip-path="url(#pe988eb551b)" style="fill: #fefebb; stroke: #444443; stroke-width: 0.5; stroke-linejoin: miter" />
   </g>
   <g id="patch_7">
    <path d="M 75.396522 29.439375  L 83.402609 29.439375  L 83.402609 29.439375  L 75.396522 29.439375  z " clip-path="url(#pe988eb551b)" style="fill: #fefebb; stroke: #444443; stroke-width: 0.5; stroke-linejoin: miter" />
   </g>
   <g id="patch_8">
    <path d="M 83.402609 29.439375  L 91.408696 29.439375  L 91.408696 29.439375  L 83.402609 29.439375  z " clip-path="url(#pe988eb551b)" style="fill: #fefebb; stroke: #444443; stroke-width: 0.5; stroke-linejoin: miter" />
   </g>
   <g id="patch_9">
    <path d="M 91.408696 29.439375  L 99.414783 29.439375  L 99.414783 29.439375  L 91.408696 29.439375  z " clip-path="url(#pe988eb551b)" style="fill: #fefebb; stroke: #444443; stroke-width: 0.5; stroke-linejoin: miter" />
   </g>
   <g id="patch_10">
    <path d="M 99.414783 29.439375  L 107.42087 29.439375  L 107.42087 29.439375  L 99.414783 29.439375  z " clip-path="url(#pe988eb551b)" style="fill: #fefebb; stroke: #444443; stroke-width: 0.5; stroke-linejoin: miter" />
   </g>
   <g id="patch_11">
    <path d="M 107.42087 29.439375  L 115.426957 29.439375  L 115.426957 29.439375  L 107.42087 29.439375  z " clip-path="url(#pe988eb551b)" style="fill: #fefebb; stroke: #444443; stroke-width: 0.5; stroke-linejoin: miter" />
   </g>
   <g id="patch_12">
    <path d="M 115.426957 29.439375  L 123.433043 29.439375  L 123.433043 29.439375  L 115.426957 29.439375  z " clip-path="url(#pe988eb551b)" style="fill: #fefebb; stroke: #444443; stroke-width: 0.5; stroke-linejoin: miter" />
   </g>
   <g id="patch_13">
    <path d="M 123.433043 29.439375  L 131.43913 29.439375  L 131.43913 29.439375  L 123.433043 29.439375  z " clip-path="url(#pe988eb551b)" style="fill: #fefebb; stroke: #444443; stroke-width: 0.5; stroke-linejoin: miter" />
   </g>
   <g id="patch_14">
    <path d="M 131.43913 29.439375  L 139.445217 29.439375  L 139.445217 29.439375  L 131.43913 29.439375  z " clip-path="url(#pe988eb551b)" style="fill: #fefebb; stroke: #444443; stroke-width: 0.5; stroke-linejoin: miter" />
   </g>
   <g id="patch_15">
    <path d="M 139.445217 29.439375  L 147.451304 29.439375  L 147.451304 29.439375  L 139.445217 29.439375  z " clip-path="url(#pe988eb551b)" style="fill: #fefebb; stroke: #444443; stroke-width: 0.5; stroke-linejoin: miter" />
   </g>
   <g id="patch_16">
    <path d="M 147.451304 29.439375  L 155.457391 29.439375  L 155.457391 29.439375  L 147.451304 29.439375  z " clip-path="url(#pe988eb551b)" style="fill: #fefebb; stroke: #444443; stroke-width: 0.5; stroke-linejoin: miter" />
   </g>
   <g id="patch_17">
    <path d="M 155.457391 29.439375  L 163.463478 29.439375  L 163.463478 29.439375  L 155.457391 29.439375  z " clip-path="url(#pe988eb551b)" style="fill: #fefebb; stroke: #444443; stroke-width: 0.5; stroke-linejoin: miter" />
   </g>
   <g id="patch_18">
    <path d="M 163.463478 29.439375  L 171.469565 29.439375  L 171.469565 29.439375  L 163.463478 29.439375  z " clip-path="url(#pe988eb551b)" style="fill: #fefebb; stroke: #444443; stroke-width: 0.5; stroke-linejoin: miter" />
   </g>
   <g id="patch_19">
    <path d="M 171.469565 29.439375  L 179.475652 29.439375  L 179.475652 29.439375  L 171.469565 29.439375  z " clip-path="url(#pe988eb551b)" style="fill: #fefebb; stroke: #444443; stroke-width: 0.5; stroke-linejoin: miter" />
   </g>
   <g id="patch_20">
    <path d="M 179.475652 29.439375  L 187.481739 29.439375  L 187.481739 29.439375  L 179.475652 29.439375  z " clip-path="url(#pe988eb551b)" style="fill: #fefebb; stroke: #444443; stroke-width: 0.5; stroke-linejoin: miter" />
   </g>
   <g id="patch_21">
    <path d="M 187.481739 29.439375  L 195.487826 29.439375  L 195.487826 29.439375  L 187.481739 29.439375  z " clip-path="url(#pe988eb551b)" style="fill: #fefebb; stroke: #444443; stroke-width: 0.5; stroke-linejoin: miter" />
   </g>
   <g id="patch_22">
    <path d="M 43.372174 3.138965  L 51.378261 3.138965  L 51.378261 3.039375  L 43.372174 3.039375  z " clip-path="url(#pe988eb551b)" style="fill: #a1dab4; stroke: #444443; stroke-width: 0.5; stroke-linejoin: miter" />
   </g>
   <g id="patch_23">
    <path d="M 51.378261 29.439375  L 59.384348 29.439375  L 59.384348 29.439375  L 51.378261 29.439375  z " clip-path="url(#pe988eb551b)" style="fill: #a1dab4; stroke: #444443; stroke-width: 0.5; stroke-linejoin: miter" />
   </g>
   <g id="patch_24">
    <path d="M 59.384348 29.439375  L 67.390435 29.439375  L 67.390435 29.439375  L 59.384348 29.439375  z " clip-path="url(#pe988eb551b)" style="fill: #a1dab4; stroke: #444443; stroke-width: 0.5; stroke-linejoin: miter" />
   </g>
   <g id="patch_25">
    <path d="M 67.390435 29.439375  L 75.396522 29.439375  L 75.396522 29.439375  L 67.390435 29.439375  z " clip-path="url(#pe988eb551b)" style="fill: #a1dab4; stroke: #444443; stroke-width: 0.5; stroke-linejoin: miter" />
   </g>
   <g id="patch_26">
    <path d="M 75.396522 29.439375  L 83.402609 29.439375  L 83.402609 29.439375  L 75.396522 29.439375  z " clip-path="url(#pe988eb551b)" style="fill: #a1dab4; stroke: #444443; stroke-width: 0.5; stroke-linejoin: miter" />
   </g>
   <g id="patch_27">
    <path d="M 83.402609 29.439375  L 91.408696 29.439375  L 91.408696 29.439375  L 83.402609 29.439375  z " clip-path="url(#pe988eb551b)" style="fill: #a1dab4; stroke: #444443; stroke-width: 0.5; stroke-linejoin: miter" />
   </g>
   <g id="patch_28">
    <path d="M 91.408696 29.439375  L 99.414783 29.439375  L 99.414783 29.439375  L 91.408696 29.439375  z " clip-path="url(#pe988eb551b)" style="fill: #a1dab4; stroke: #444443; stroke-width: 0.5; stroke-linejoin: miter" />
   </g>
   <g id="patch_29">
    <path d="M 99.414783 29.439375  L 107.42087 29.439375  L 107.42087 29.439375  L 99.414783 29.439375  z " clip-path="url(#pe988eb551b)" style="fill: #a1dab4; stroke: #444443; stroke-width: 0.5; stroke-linejoin: miter" />
   </g>
   <g id="patch_30">
    <path d="M 107.42087 29.439375  L 115.426957 29.439375  L 115.426957 29.439375  L 107.42087 29.439375  z " clip-path="url(#pe988eb551b)" style="fill: #a1dab4; stroke: #444443; stroke-width: 0.5; stroke-linejoin: miter" />
   </g>
   <g id="patch_31">
    <path d="M 115.426957 29.439375  L 123.433043 29.439375  L 123.433043 29.439375  L 115.426957 29.439375  z " clip-path="url(#pe988eb551b)" style="fill: #a1dab4; stroke: #444443; stroke-width: 0.5; stroke-linejoin: miter" />
   </g>
   <g id="patch_32">
    <path d="M 123.433043 29.439375  L 131.43913 29.439375  L 131.43913 29.439375  L 123.433043 29.439375  z " clip-path="url(#pe988eb551b)" style="fill: #a1dab4; stroke: #444443; stroke-width: 0.5; stroke-linejoin: miter" />
   </g>
   <g id="patch_33">
    <path d="M 131.43913 29.439375  L 139.445217 29.439375  L 139.445217 29.439375  L 131.43913 29.439375  z " clip-path="url(#pe988eb551b)" style="fill: #a1dab4; stroke: #444443; stroke-width: 0.5; stroke-linejoin: miter" />
   </g>
   <g id="patch_34">
    <path d="M 139.445217 29.439375  L 147.451304 29.439375  L 147.451304 29.439375  L 139.445217 29.439375  z " clip-path="url(#pe988eb551b)" style="fill: #a1dab4; stroke: #444443; stroke-width: 0.5; stroke-linejoin: miter" />
   </g>
   <g id="patch_35">
    <path d="M 147.451304 29.439375  L 155.457391 29.439375  L 155.457391 29.439375  L 147.451304 29.439375  z " clip-path="url(#pe988eb551b)" style="fill: #a1dab4; stroke: #444443; stroke-width: 0.5; stroke-linejoin: miter" />
   </g>
   <g id="patch_36">
    <path d="M 155.457391 29.439375  L 163.463478 29.439375  L 163.463478 29.439375  L 155.457391 29.439375  z " clip-path="url(#pe988eb551b)" style="fill: #a1dab4; stroke: #444443; stroke-width: 0.5; stroke-linejoin: miter" />
   </g>
   <g id="patch_37">
    <path d="M 163.463478 29.439375  L 171.469565 29.439375  L 171.469565 29.439375  L 163.463478 29.439375  z " clip-path="url(#pe988eb551b)" style="fill: #a1dab4; stroke: #444443; stroke-width: 0.5; stroke-linejoin: miter" />
   </g>
   <g id="patch_38">
    <path d="M 171.469565 29.439375  L 179.475652 29.439375  L 179.475652 29.439375  L 171.469565 29.439375  z " clip-path="url(#pe988eb551b)" style="fill: #a1dab4; stroke: #444443; stroke-width: 0.5; stroke-linejoin: miter" />
   </g>
   <g id="patch_39">
    <path d="M 179.475652 29.439375  L 187.481739 29.439375  L 187.481739 29.439375  L 179.475652 29.439375  z " clip-path="url(#pe988eb551b)" style="fill: #a1dab4; stroke: #444443; stroke-width: 0.5; stroke-linejoin: miter" />
   </g>
   <g id="patch_40">
    <path d="M 187.481739 29.439375  L 195.487826 29.439375  L 195.487826 29.439375  L 187.481739 29.439375  z " clip-path="url(#pe988eb551b)" style="fill: #a1dab4; stroke: #444443; stroke-width: 0.5; stroke-linejoin: miter" />
   </g>
   <g id="patch_41">
    <path d="M 44.027845 30.270975  L 40.713325 38.586975  L 47.342365 38.586975  z " style="fill: #444443" />
   </g>
   <g id="matplotlib.axis_1">
    <g id="xtick_1">
     <g id="line2d_1">
      <defs>
       <path id="m672f0cf10a" d="M 0 0  L 0 3.5  " style="stroke: #000000; stroke-width: 0.3" />
      </defs>
      <g>
       <use xlink:href="#m672f0cf10a" x="43.372174" y="29.439375" style="stroke: #000000; stroke-width: 0.3" />
      </g>
     </g>
     <g id="text_1">
      
      <g style="fill: #444443" transform="translate(40.827174 47.018125) scale(0.08 -0.08)">
       <defs>
        <path id="DejaVuSans-30" d="M 2034 4250  Q 1547 4250 1301 3770  Q 1056 3291 1056 2328  Q 1056 1369 1301 889  Q 1547 409 2034 409  Q 2525 409 2770 889  Q 3016 1369 3016 2328  Q 3016 3291 2770 3770  Q 2525 4250 2034 4250  z M 2034 4750  Q 2819 4750 3233 4129  Q 3647 3509 3647 2328  Q 3647 1150 3233 529  Q 2819 -91 2034 -91  Q 1250 -91 836 529  Q 422 1150 422 2328  Q 422 3509 836 4129  Q 1250 4750 2034 4750  z " transform="scale(0.015625)" />
       </defs>
       <use xlink:href="#DejaVuSans-30" />
      </g>
     </g>
    </g>
    <g id="xtick_2">
     <g id="line2d_2">
      <g>
       <use xlink:href="#m672f0cf10a" x="195.487826" y="29.439375" style="stroke: #000000; stroke-width: 0.3" />
      </g>
     </g>
     <g id="text_2">
      
      <g style="fill: #444443" transform="translate(187.852826 47.018125) scale(0.08 -0.08)">
       <defs>
        <path id="DejaVuSans-31" d="M 794 531  L 1825 531  L 1825 4091  L 703 3866  L 703 4441  L 1819 4666  L 2450 4666  L 2450 531  L 3481 531  L 3481 0  L 794 0  L 794 531  z " transform="scale(0.015625)" />
        <path id="DejaVuSans-36" d="M 2113 2584  Q 1688 2584 1439 2293  Q 1191 2003 1191 1497  Q 1191 994 1439 701  Q 1688 409 2113 409  Q 2538 409 2786 701  Q 3034 994 3034 1497  Q 3034 2003 2786 2293  Q 2538 2584 2113 2584  z M 3366 4563  L 3366 3988  Q 3128 4100 2886 4159  Q 2644 4219 2406 4219  Q 1781 4219 1451 3797  Q 1122 3375 1075 2522  Q 1259 2794 1537 2939  Q 1816 3084 2150 3084  Q 2853 3084 3261 2657  Q 3669 2231 3669 1497  Q 3669 778 3244 343  Q 2819 -91 2113 -91  Q 1303 -91 875 529  Q 447 1150 447 2328  Q 447 3434 972 4092  Q 1497 4750 2381 4750  Q 2619 4750 2861 4703  Q 3103 4656 3366 4563  z " transform="scale(0.015625)" />
       </defs>
       <use xlink:href="#DejaVuSans-31" />
       <use xlink:href="#DejaVuSans-31" x="63.623047" />
       <use xlink:href="#DejaVuSans-36" x="127.246094" />
      </g>
     </g>
    </g>
    <g id="text_3">
     
     <g style="fill: #444443" transform="translate(93.441562 61.8) scale(0.12 -0.12)">
      <defs>
       <path id="DejaVuSans-66" d="M 2375 4863  L 2375 4384  L 1825 4384  Q 1516 4384 1395 4259  Q 1275 4134 1275 3809  L 1275 3500  L 2222 3500  L 2222 3053  L 1275 3053  L 1275 0  L 697 0  L 697 3053  L 147 3053  L 147 3500  L 697 3500  L 697 3744  Q 697 4328 969 4595  Q 1241 4863 1831 4863  L 2375 4863  z " transform="scale(0.015625)" />
       <path id="DejaVuSans-61" d="M 2194 1759  Q 1497 1759 1228 1600  Q 959 1441 959 1056  Q 959 750 1161 570  Q 1363 391 1709 391  Q 2188 391 2477 730  Q 2766 1069 2766 1631  L 2766 1759  L 2194 1759  z M 3341 1997  L 3341 0  L 2766 0  L 2766 531  Q 2569 213 2275 61  Q 1981 -91 1556 -91  Q 1019 -91 701 211  Q 384 513 384 1019  Q 384 1609 779 1909  Q 1175 2209 1959 2209  L 2766 2209  L 2766 2266  Q 2766 2663 2505 2880  Q 2244 3097 1772 3097  Q 1472 3097 1187 3025  Q 903 2953 641 2809  L 641 3341  Q 956 3463 1253 3523  Q 1550 3584 1831 3584  Q 2591 3584 2966 3190  Q 3341 2797 3341 1997  z " transform="scale(0.015625)" />
       <path id="DejaVuSans-74" d="M 1172 4494  L 1172 3500  L 2356 3500  L 2356 3053  L 1172 3053  L 1172 1153  Q 1172 725 1289 603  Q 1406 481 1766 481  L 2356 481  L 2356 0  L 1766 0  Q 1100 0 847 248  Q 594 497 594 1153  L 594 3053  L 172 3053  L 172 3500  L 594 3500  L 594 4494  L 1172 4494  z " transform="scale(0.015625)" />
       <path id="DejaVuSans-6c" d="M 603 4863  L 1178 4863  L 1178 0  L 603 0  L 603 4863  z " transform="scale(0.015625)" />
       <path id="DejaVuSans-69" d="M 603 3500  L 1178 3500  L 1178 0  L 603 0  L 603 3500  z M 603 4863  L 1178 4863  L 1178 4134  L 603 4134  L 603 4863  z " transform="scale(0.015625)" />
       <path id="DejaVuSans-65" d="M 3597 1894  L 3597 1613  L 953 1613  Q 991 1019 1311 708  Q 1631 397 2203 397  Q 2534 397 2845 478  Q 3156 559 3463 722  L 3463 178  Q 3153 47 2828 -22  Q 2503 -91 2169 -91  Q 1331 -91 842 396  Q 353 884 353 1716  Q 353 2575 817 3079  Q 1281 3584 2069 3584  Q 2775 3584 3186 3129  Q 3597 2675 3597 1894  z M 3022 2063  Q 3016 2534 2758 2815  Q 2500 3097 2075 3097  Q 1594 3097 1305 2825  Q 1016 2553 972 2059  L 3022 2063  z " transform="scale(0.015625)" />
       <path id="DejaVuSans-73" d="M 2834 3397  L 2834 2853  Q 2591 2978 2328 3040  Q 2066 3103 1784 3103  Q 1356 3103 1142 2972  Q 928 2841 928 2578  Q 928 2378 1081 2264  Q 1234 2150 1697 2047  L 1894 2003  Q 2506 1872 2764 1633  Q 3022 1394 3022 966  Q 3022 478 2636 193  Q 2250 -91 1575 -91  Q 1294 -91 989 -36  Q 684 19 347 128  L 347 722  Q 666 556 975 473  Q 1284 391 1588 391  Q 1994 391 2212 530  Q 2431 669 2431 922  Q 2431 1156 2273 1281  Q 2116 1406 1581 1522  L 1381 1569  Q 847 1681 609 1914  Q 372 2147 372 2553  Q 372 3047 722 3315  Q 1072 3584 1716 3584  Q 2034 3584 2315 3537  Q 2597 3491 2834 3397  z " transform="scale(0.015625)" />
      </defs>
      <use xlink:href="#DejaVuSans-66" />
      <use xlink:href="#DejaVuSans-61" x="35.205078" />
      <use xlink:href="#DejaVuSans-74" x="96.484375" />
      <use xlink:href="#DejaVuSans-61" x="135.693359" />
      <use xlink:href="#DejaVuSans-6c" x="196.972656" />
      <use xlink:href="#DejaVuSans-69" x="224.755859" />
      <use xlink:href="#DejaVuSans-74" x="252.539062" />
      <use xlink:href="#DejaVuSans-69" x="291.748047" />
      <use xlink:href="#DejaVuSans-65" x="319.53125" />
      <use xlink:href="#DejaVuSans-73" x="381.054688" />
     </g>
    </g>
   </g>
   <g id="matplotlib.axis_2">
    <g id="ytick_1">
     <g id="line2d_3">
      <defs>
       <path id="m43e68ae1cd" d="M 0 0  L -3.5 0  " style="stroke: #000000; stroke-width: 0.3" />
      </defs>
      <g>
       <use xlink:href="#m43e68ae1cd" x="27.36" y="29.439375" style="stroke: #000000; stroke-width: 0.3" />
      </g>
     </g>
     <g id="text_4">
      
      <g style="fill: #444443" transform="translate(15.27 32.47875) scale(0.08 -0.08)">
       <use xlink:href="#DejaVuSans-30" />
      </g>
     </g>
    </g>
    <g id="ytick_2">
     <g id="line2d_4">
      <g>
       <use xlink:href="#m43e68ae1cd" x="27.36" y="3.039375" style="stroke: #000000; stroke-width: 0.3" />
      </g>
     </g>
     <g id="text_5">
      
      <g style="fill: #444443" transform="translate(0 6.07875) scale(0.08 -0.08)">
       <defs>
        <path id="DejaVuSans-39" d="M 703 97  L 703 672  Q 941 559 1184 500  Q 1428 441 1663 441  Q 2288 441 2617 861  Q 2947 1281 2994 2138  Q 2813 1869 2534 1725  Q 2256 1581 1919 1581  Q 1219 1581 811 2004  Q 403 2428 403 3163  Q 403 3881 828 4315  Q 1253 4750 1959 4750  Q 2769 4750 3195 4129  Q 3622 3509 3622 2328  Q 3622 1225 3098 567  Q 2575 -91 1691 -91  Q 1453 -91 1209 -44  Q 966 3 703 97  z M 1959 2075  Q 2384 2075 2632 2365  Q 2881 2656 2881 3163  Q 2881 3666 2632 3958  Q 2384 4250 1959 4250  Q 1534 4250 1286 3958  Q 1038 3666 1038 3163  Q 1038 2656 1286 2365  Q 1534 2075 1959 2075  z " transform="scale(0.015625)" />
        <path id="DejaVuSans-37" d="M 525 4666  L 3525 4666  L 3525 4397  L 1831 0  L 1172 0  L 2766 4134  L 525 4134  L 525 4666  z " transform="scale(0.015625)" />
       </defs>
       <use xlink:href="#DejaVuSans-36" />
       <use xlink:href="#DejaVuSans-30" x="63.623047" />
       <use xlink:href="#DejaVuSans-39" x="127.246094" />
       <use xlink:href="#DejaVuSans-37" x="190.869141" />
      </g>
     </g>
    </g>
   </g>
   <g id="patch_42">
    <path d="M 27.36 29.439375  L 27.36 1.719375  " style="fill: none; stroke: #444443; stroke-width: 0.3; stroke-linejoin: miter; stroke-linecap: square" />
   </g>
   <g id="patch_43">
    <path d="M 27.36 29.439375  L 211.5 29.439375  " style="fill: none; stroke: #444443; stroke-width: 0.3; stroke-linejoin: miter; stroke-linecap: square" />
   </g>
  </g>
 </g>
 <defs>
  <clipPath id="pe988eb551b">
   <rect x="27.36" y="1.719375" width="184.14" height="27.72" />
  </clipPath>
 </defs>
</svg></g>

<g id="node3" class="node">
<title>leaf2</title>
<polygon fill="none" stroke="#444443" stroke-width="0" points="85.5,-84 17.5,-84 17.5,0 85.5,0 85.5,-84" />
<svg width="60px" height="76px" viewBox="0 0 80.08 102.071544" version="1.1" preserveAspectRatio="xMinYMin meet" x="21.5" y="-80">
 <metadata>
  <rdf:RDF>
   <ns2:Work>
    <dc:type rdf:resource="http://purl.org/dc/dcmitype/StillImage" />
    <dc:date>2025-02-01T02:17:04.346401</dc:date>
    <dc:format>image/svg+xml</dc:format>
    <dc:creator>
     <ns2:Agent>
      <dc:title>Matplotlib v3.9.3, https://matplotlib.org/</dc:title>
     </ns2:Agent>
    </dc:creator>
   </ns2:Work>
  </rdf:RDF>
 </metadata>
 <defs>
  <style type="text/css">*{stroke-linejoin: round; stroke-linecap: butt}</style>
 </defs>
 <g id="figure_1">
  <g id="patch_1">
   <path d="M 0 102.071544  L 80.08 102.071544  L 80.08 0  L 0 0  z " style="fill: #ffffff" />
  </g>
  <g id="axes_1">
   <g id="patch_2">
    <path d="M 80.08 40.04  C 80.08 34.781995 79.044288 29.575118 77.032136 24.717355  C 75.019985 19.859593 72.070526 15.445415 68.352556 11.727444  C 64.634585 8.009474 60.220407 5.060015 55.362645 3.047864  C 50.504882 1.035712 45.298005 -0 40.04 -0  C 34.781995 -0 29.575118 1.035712 24.717355 3.047864  C 19.859593 5.060015 15.445415 8.009474 11.727444 11.727444  C 8.009474 15.445415 5.060015 19.859593 3.047864 24.717355  C 1.035712 29.575118 0 34.781995 0 40.04  C 0 45.298005 1.035712 50.504882 3.047864 55.362645  C 5.060015 60.220407 8.009474 64.634585 11.727444 68.352556  C 15.445415 72.070526 19.859593 75.019985 24.717355 77.032136  C 29.575118 79.044288 34.781995 80.08 40.04 80.08  C 45.298005 80.08 50.504882 79.044288 55.362645 77.032136  C 60.220407 75.019985 64.634585 72.070526 68.352556 68.352556  C 72.070526 64.634585 75.019985 60.220407 77.032136 55.362645  C 79.044288 50.504882 80.08 45.298005 80.08 40.04  M 40.04 40.04  z " style="fill: #fefebb; stroke: #444443; stroke-width: 0.5; stroke-linejoin: miter" />
   </g>
   <g id="text_1">
    
    <g style="fill: #444443" transform="translate(21.964766 90.121794) scale(0.09 -0.09)">
     <defs>
      <path id="DejaVuSans-6e" d="M 3513 2113  L 3513 0  L 2938 0  L 2938 2094  Q 2938 2591 2744 2837  Q 2550 3084 2163 3084  Q 1697 3084 1428 2787  Q 1159 2491 1159 1978  L 1159 0  L 581 0  L 581 3500  L 1159 3500  L 1159 2956  Q 1366 3272 1645 3428  Q 1925 3584 2291 3584  Q 2894 3584 3203 3211  Q 3513 2838 3513 2113  z " transform="scale(0.015625)" />
      <path id="DejaVuSans-3d" d="M 678 2906  L 4684 2906  L 4684 2381  L 678 2381  L 678 2906  z M 678 1631  L 4684 1631  L 4684 1100  L 678 1100  L 678 1631  z " transform="scale(0.015625)" />
      <path id="DejaVuSans-36" d="M 2113 2584  Q 1688 2584 1439 2293  Q 1191 2003 1191 1497  Q 1191 994 1439 701  Q 1688 409 2113 409  Q 2538 409 2786 701  Q 3034 994 3034 1497  Q 3034 2003 2786 2293  Q 2538 2584 2113 2584  z M 3366 4563  L 3366 3988  Q 3128 4100 2886 4159  Q 2644 4219 2406 4219  Q 1781 4219 1451 3797  Q 1122 3375 1075 2522  Q 1259 2794 1537 2939  Q 1816 3084 2150 3084  Q 2853 3084 3261 2657  Q 3669 2231 3669 1497  Q 3669 778 3244 343  Q 2819 -91 2113 -91  Q 1303 -91 875 529  Q 447 1150 447 2328  Q 447 3434 972 4092  Q 1497 4750 2381 4750  Q 2619 4750 2861 4703  Q 3103 4656 3366 4563  z " transform="scale(0.015625)" />
      <path id="DejaVuSans-30" d="M 2034 4250  Q 1547 4250 1301 3770  Q 1056 3291 1056 2328  Q 1056 1369 1301 889  Q 1547 409 2034 409  Q 2525 409 2770 889  Q 3016 1369 3016 2328  Q 3016 3291 2770 3770  Q 2525 4250 2034 4250  z M 2034 4750  Q 2819 4750 3233 4129  Q 3647 3509 3647 2328  Q 3647 1150 3233 529  Q 2819 -91 2034 -91  Q 1250 -91 836 529  Q 422 1150 422 2328  Q 422 3509 836 4129  Q 1250 4750 2034 4750  z " transform="scale(0.015625)" />
      <path id="DejaVuSans-37" d="M 525 4666  L 3525 4666  L 3525 4397  L 1831 0  L 1172 0  L 2766 4134  L 525 4134  L 525 4666  z " transform="scale(0.015625)" />
      <path id="DejaVuSans-34" d="M 2419 4116  L 825 1625  L 2419 1625  L 2419 4116  z M 2253 4666  L 3047 4666  L 3047 1625  L 3713 1625  L 3713 1100  L 3047 1100  L 3047 0  L 2419 0  L 2419 1100  L 313 1100  L 313 1709  L 2253 4666  z " transform="scale(0.015625)" />
     </defs>
     <use xlink:href="#DejaVuSans-6e" />
     <use xlink:href="#DejaVuSans-3d" x="63.378906" />
     <use xlink:href="#DejaVuSans-36" x="147.167969" />
     <use xlink:href="#DejaVuSans-30" x="210.791016" />
     <use xlink:href="#DejaVuSans-37" x="274.414062" />
     <use xlink:href="#DejaVuSans-34" x="338.037109" />
    </g>
    
    <g style="fill: #444443" transform="translate(15.150078 100.199825) scale(0.09 -0.09)">
     <defs>
      <path id="DejaVuSans-4e" d="M 628 4666  L 1478 4666  L 3547 763  L 3547 4666  L 4159 4666  L 4159 0  L 3309 0  L 1241 3903  L 1241 0  L 628 0  L 628 4666  z " transform="scale(0.015625)" />
      <path id="DejaVuSans-6f" d="M 1959 3097  Q 1497 3097 1228 2736  Q 959 2375 959 1747  Q 959 1119 1226 758  Q 1494 397 1959 397  Q 2419 397 2687 759  Q 2956 1122 2956 1747  Q 2956 2369 2687 2733  Q 2419 3097 1959 3097  z M 1959 3584  Q 2709 3584 3137 3096  Q 3566 2609 3566 1747  Q 3566 888 3137 398  Q 2709 -91 1959 -91  Q 1206 -91 779 398  Q 353 888 353 1747  Q 353 2609 779 3096  Q 1206 3584 1959 3584  z " transform="scale(0.015625)" />
      <path id="DejaVuSans-74" d="M 1172 4494  L 1172 3500  L 2356 3500  L 2356 3053  L 1172 3053  L 1172 1153  Q 1172 725 1289 603  Q 1406 481 1766 481  L 2356 481  L 2356 0  L 1766 0  Q 1100 0 847 248  Q 594 497 594 1153  L 594 3053  L 172 3053  L 172 3500  L 594 3500  L 594 4494  L 1172 4494  z " transform="scale(0.015625)" />
      <path id="DejaVuSans-20" transform="scale(0.015625)" />
      <path id="DejaVuSans-53" d="M 3425 4513  L 3425 3897  Q 3066 4069 2747 4153  Q 2428 4238 2131 4238  Q 1616 4238 1336 4038  Q 1056 3838 1056 3469  Q 1056 3159 1242 3001  Q 1428 2844 1947 2747  L 2328 2669  Q 3034 2534 3370 2195  Q 3706 1856 3706 1288  Q 3706 609 3251 259  Q 2797 -91 1919 -91  Q 1588 -91 1214 -16  Q 841 59 441 206  L 441 856  Q 825 641 1194 531  Q 1563 422 1919 422  Q 2459 422 2753 634  Q 3047 847 3047 1241  Q 3047 1584 2836 1778  Q 2625 1972 2144 2069  L 1759 2144  Q 1053 2284 737 2584  Q 422 2884 422 3419  Q 422 4038 858 4394  Q 1294 4750 2059 4750  Q 2388 4750 2728 4690  Q 3069 4631 3425 4513  z " transform="scale(0.015625)" />
      <path id="DejaVuSans-65" d="M 3597 1894  L 3597 1613  L 953 1613  Q 991 1019 1311 708  Q 1631 397 2203 397  Q 2534 397 2845 478  Q 3156 559 3463 722  L 3463 178  Q 3153 47 2828 -22  Q 2503 -91 2169 -91  Q 1331 -91 842 396  Q 353 884 353 1716  Q 353 2575 817 3079  Q 1281 3584 2069 3584  Q 2775 3584 3186 3129  Q 3597 2675 3597 1894  z M 3022 2063  Q 3016 2534 2758 2815  Q 2500 3097 2075 3097  Q 1594 3097 1305 2825  Q 1016 2553 972 2059  L 3022 2063  z " transform="scale(0.015625)" />
      <path id="DejaVuSans-76" d="M 191 3500  L 800 3500  L 1894 563  L 2988 3500  L 3597 3500  L 2284 0  L 1503 0  L 191 3500  z " transform="scale(0.015625)" />
      <path id="DejaVuSans-72" d="M 2631 2963  Q 2534 3019 2420 3045  Q 2306 3072 2169 3072  Q 1681 3072 1420 2755  Q 1159 2438 1159 1844  L 1159 0  L 581 0  L 581 3500  L 1159 3500  L 1159 2956  Q 1341 3275 1631 3429  Q 1922 3584 2338 3584  Q 2397 3584 2469 3576  Q 2541 3569 2628 3553  L 2631 2963  z " transform="scale(0.015625)" />
     </defs>
     <use xlink:href="#DejaVuSans-4e" />
     <use xlink:href="#DejaVuSans-6f" x="74.804688" />
     <use xlink:href="#DejaVuSans-74" x="135.986328" />
     <use xlink:href="#DejaVuSans-20" x="175.195312" />
     <use xlink:href="#DejaVuSans-53" x="206.982422" />
     <use xlink:href="#DejaVuSans-65" x="270.458984" />
     <use xlink:href="#DejaVuSans-76" x="331.982422" />
     <use xlink:href="#DejaVuSans-65" x="391.162109" />
     <use xlink:href="#DejaVuSans-72" x="452.685547" />
     <use xlink:href="#DejaVuSans-65" x="491.548828" />
    </g>
   </g>
  </g>
 </g>
</svg></g>

<g id="edge1" class="edge">
<title>node1-&gt;leaf2</title>
<path fill="none" stroke="#444443" stroke-width="0.3" d="M74.76,-114.95C72.07,-106.63 69.03,-97.24 66.07,-88.06" />
<polygon fill="#444443" stroke="#444443" stroke-width="0.3" points="67.36,-87.52 64.8,-84.14 64.7,-88.38 67.36,-87.52" />
</g>

<g id="node4" class="node">
<title>leaf3</title>
<polygon fill="none" stroke="#444443" stroke-width="0" points="135.5,-67.5 99.5,-67.5 99.5,-16.5 135.5,-16.5 135.5,-67.5" />
<svg width="28px" height="43px" viewBox="0 0 37.576 57.867384" version="1.1" preserveAspectRatio="xMinYMin meet" x="103.5" y="-63">
 <metadata>
  <rdf:RDF>
   <ns2:Work>
    <dc:type rdf:resource="http://purl.org/dc/dcmitype/StillImage" />
    <dc:date>2025-02-01T02:17:04.400597</dc:date>
    <dc:format>image/svg+xml</dc:format>
    <dc:creator>
     <ns2:Agent>
      <dc:title>Matplotlib v3.9.3, https://matplotlib.org/</dc:title>
     </ns2:Agent>
    </dc:creator>
   </ns2:Work>
  </rdf:RDF>
 </metadata>
 <defs>
  <style type="text/css">*{stroke-linejoin: round; stroke-linecap: butt}</style>
 </defs>
 <g id="figure_1">
  <g id="patch_1">
   <path d="M 0 57.867384  L 37.576 57.867384  L 37.576 0  L 0 0  z " style="fill: #ffffff" />
  </g>
  <g id="axes_1">
   <g id="patch_2">
    <path d="M 37.576 18.788  C 37.576 16.320782 37.090012 13.877555 36.145849 11.598144  C 35.201685 9.318732 33.817708 7.247464 32.073122 5.502878  C 30.328536 3.758292 28.257268 2.374315 25.977856 1.430151  C 23.698445 0.485988 21.255218 0 18.788 0  C 16.320782 0 13.877555 0.485988 11.598144 1.430151  C 9.318732 2.374315 7.247464 3.758292 5.502878 5.502878  C 3.758292 7.247464 2.374315 9.318732 1.430151 11.598144  C 0.485988 13.877555 0 16.320782 0 18.788  C 0 21.255218 0.485988 23.698445 1.430151 25.977856  C 2.374315 28.257268 3.758292 30.328536 5.502878 32.073122  C 7.247464 33.817708 9.318732 35.201685 11.598144 36.145849  C 13.877555 37.090012 16.320782 37.576 18.788 37.576  C 21.255218 37.576 23.698445 37.090012 25.977856 36.145849  C 28.257268 35.201685 30.328536 33.817708 32.073122 32.073122  C 33.817708 30.328536 35.201685 28.257268 36.145849 25.977856  C 37.090012 23.698445 37.576 21.255218 37.576 18.788  M 18.788 18.788  z " style="fill: #a1dab4; stroke: #444443; stroke-width: 0.5; stroke-linejoin: miter" />
   </g>
   <g id="text_1">
    
    <g style="fill: #444443" transform="translate(6.439016 45.917634) scale(0.09 -0.09)">
     <defs>
      <path id="DejaVuSans-6e" d="M 3513 2113  L 3513 0  L 2938 0  L 2938 2094  Q 2938 2591 2744 2837  Q 2550 3084 2163 3084  Q 1697 3084 1428 2787  Q 1159 2491 1159 1978  L 1159 0  L 581 0  L 581 3500  L 1159 3500  L 1159 2956  Q 1366 3272 1645 3428  Q 1925 3584 2291 3584  Q 2894 3584 3203 3211  Q 3513 2838 3513 2113  z " transform="scale(0.015625)" />
      <path id="DejaVuSans-3d" d="M 678 2906  L 4684 2906  L 4684 2381  L 678 2381  L 678 2906  z M 678 1631  L 4684 1631  L 4684 1100  L 678 1100  L 678 1631  z " transform="scale(0.015625)" />
      <path id="DejaVuSans-32" d="M 1228 531  L 3431 531  L 3431 0  L 469 0  L 469 531  Q 828 903 1448 1529  Q 2069 2156 2228 2338  Q 2531 2678 2651 2914  Q 2772 3150 2772 3378  Q 2772 3750 2511 3984  Q 2250 4219 1831 4219  Q 1534 4219 1204 4116  Q 875 4013 500 3803  L 500 4441  Q 881 4594 1212 4672  Q 1544 4750 1819 4750  Q 2544 4750 2975 4387  Q 3406 4025 3406 3419  Q 3406 3131 3298 2873  Q 3191 2616 2906 2266  Q 2828 2175 2409 1742  Q 1991 1309 1228 531  z " transform="scale(0.015625)" />
      <path id="DejaVuSans-33" d="M 2597 2516  Q 3050 2419 3304 2112  Q 3559 1806 3559 1356  Q 3559 666 3084 287  Q 2609 -91 1734 -91  Q 1441 -91 1130 -33  Q 819 25 488 141  L 488 750  Q 750 597 1062 519  Q 1375 441 1716 441  Q 2309 441 2620 675  Q 2931 909 2931 1356  Q 2931 1769 2642 2001  Q 2353 2234 1838 2234  L 1294 2234  L 1294 2753  L 1863 2753  Q 2328 2753 2575 2939  Q 2822 3125 2822 3475  Q 2822 3834 2567 4026  Q 2313 4219 1838 4219  Q 1578 4219 1281 4162  Q 984 4106 628 3988  L 628 4550  Q 988 4650 1302 4700  Q 1616 4750 1894 4750  Q 2613 4750 3031 4423  Q 3450 4097 3450 3541  Q 3450 3153 3228 2886  Q 3006 2619 2597 2516  z " transform="scale(0.015625)" />
     </defs>
     <use xlink:href="#DejaVuSans-6e" />
     <use xlink:href="#DejaVuSans-3d" x="63.378906" />
     <use xlink:href="#DejaVuSans-32" x="147.167969" />
     <use xlink:href="#DejaVuSans-33" x="210.791016" />
    </g>
    
    <g style="fill: #444443" transform="translate(3.212375 55.995665) scale(0.09 -0.09)">
     <defs>
      <path id="DejaVuSans-53" d="M 3425 4513  L 3425 3897  Q 3066 4069 2747 4153  Q 2428 4238 2131 4238  Q 1616 4238 1336 4038  Q 1056 3838 1056 3469  Q 1056 3159 1242 3001  Q 1428 2844 1947 2747  L 2328 2669  Q 3034 2534 3370 2195  Q 3706 1856 3706 1288  Q 3706 609 3251 259  Q 2797 -91 1919 -91  Q 1588 -91 1214 -16  Q 841 59 441 206  L 441 856  Q 825 641 1194 531  Q 1563 422 1919 422  Q 2459 422 2753 634  Q 3047 847 3047 1241  Q 3047 1584 2836 1778  Q 2625 1972 2144 2069  L 1759 2144  Q 1053 2284 737 2584  Q 422 2884 422 3419  Q 422 4038 858 4394  Q 1294 4750 2059 4750  Q 2388 4750 2728 4690  Q 3069 4631 3425 4513  z " transform="scale(0.015625)" />
      <path id="DejaVuSans-65" d="M 3597 1894  L 3597 1613  L 953 1613  Q 991 1019 1311 708  Q 1631 397 2203 397  Q 2534 397 2845 478  Q 3156 559 3463 722  L 3463 178  Q 3153 47 2828 -22  Q 2503 -91 2169 -91  Q 1331 -91 842 396  Q 353 884 353 1716  Q 353 2575 817 3079  Q 1281 3584 2069 3584  Q 2775 3584 3186 3129  Q 3597 2675 3597 1894  z M 3022 2063  Q 3016 2534 2758 2815  Q 2500 3097 2075 3097  Q 1594 3097 1305 2825  Q 1016 2553 972 2059  L 3022 2063  z " transform="scale(0.015625)" />
      <path id="DejaVuSans-76" d="M 191 3500  L 800 3500  L 1894 563  L 2988 3500  L 3597 3500  L 2284 0  L 1503 0  L 191 3500  z " transform="scale(0.015625)" />
      <path id="DejaVuSans-72" d="M 2631 2963  Q 2534 3019 2420 3045  Q 2306 3072 2169 3072  Q 1681 3072 1420 2755  Q 1159 2438 1159 1844  L 1159 0  L 581 0  L 581 3500  L 1159 3500  L 1159 2956  Q 1341 3275 1631 3429  Q 1922 3584 2338 3584  Q 2397 3584 2469 3576  Q 2541 3569 2628 3553  L 2631 2963  z " transform="scale(0.015625)" />
     </defs>
     <use xlink:href="#DejaVuSans-53" />
     <use xlink:href="#DejaVuSans-65" x="63.476562" />
     <use xlink:href="#DejaVuSans-76" x="125" />
     <use xlink:href="#DejaVuSans-65" x="184.179688" />
     <use xlink:href="#DejaVuSans-72" x="245.703125" />
     <use xlink:href="#DejaVuSans-65" x="284.566406" />
    </g>
   </g>
  </g>
 </g>
</svg></g>

<g id="edge2" class="edge">
<title>node1-&gt;leaf3</title>
<path fill="none" stroke="#444443" stroke-width="0.3" d="M92.79,-114.95C97.43,-101.45 103.03,-85.12 107.74,-71.43" />
<polygon fill="#444443" stroke="#444443" stroke-width="0.3" points="109.06,-71.88 109.04,-67.65 106.41,-70.98 109.06,-71.88" />
</g>

<g id="node5" class="node">
<title>leaf4</title>
<polygon fill="none" stroke="#444443" stroke-width="0" points="248.5,-185 180.5,-185 180.5,-101 248.5,-101 248.5,-185" />
<svg width="60px" height="76px" viewBox="0 0 80.08 102.071544" version="1.1" preserveAspectRatio="xMinYMin meet" x="184.5" y="-181">
 <metadata>
  <rdf:RDF>
   <ns2:Work>
    <dc:type rdf:resource="http://purl.org/dc/dcmitype/StillImage" />
    <dc:date>2025-02-01T02:17:04.454404</dc:date>
    <dc:format>image/svg+xml</dc:format>
    <dc:creator>
     <ns2:Agent>
      <dc:title>Matplotlib v3.9.3, https://matplotlib.org/</dc:title>
     </ns2:Agent>
    </dc:creator>
   </ns2:Work>
  </rdf:RDF>
 </metadata>
 <defs>
  <style type="text/css">*{stroke-linejoin: round; stroke-linecap: butt}</style>
 </defs>
 <g id="figure_1">
  <g id="patch_1">
   <path d="M 0 102.071544  L 80.08 102.071544  L 80.08 0  L 0 0  z " style="fill: #ffffff" />
  </g>
  <g id="axes_1">
   <g id="patch_2">
    <path d="M 80.08 40.04  C 80.08 34.781995 79.044288 29.575118 77.032136 24.717355  C 75.019985 19.859593 72.070526 15.445415 68.352556 11.727444  C 64.634585 8.009474 60.220407 5.060015 55.362645 3.047864  C 50.504882 1.035712 45.298005 -0 40.04 -0  C 34.781995 -0 29.575118 1.035712 24.717355 3.047864  C 19.859593 5.060015 15.445415 8.009474 11.727444 11.727444  C 8.009474 15.445415 5.060015 19.859593 3.047864 24.717355  C 1.035712 29.575118 0 34.781995 0 40.04  C 0 45.298005 1.035712 50.504882 3.047864 55.362645  C 5.060015 60.220407 8.009474 64.634585 11.727444 68.352556  C 15.445415 72.070526 19.859593 75.019985 24.717355 77.032136  C 29.575118 79.044288 34.781995 80.08 40.04 80.08  C 45.298005 80.08 50.504882 79.044288 55.362645 77.032136  C 60.220407 75.019985 64.634585 72.070526 68.352556 68.352556  C 72.070526 64.634585 75.019985 60.220407 77.032136 55.362645  C 79.044288 50.504882 80.08 45.298005 80.08 40.04  M 40.04 40.04  z " style="fill: #a1dab4; stroke: #444443; stroke-width: 0.5; stroke-linejoin: miter" />
   </g>
   <g id="text_1">
    
    <g style="fill: #444443" transform="translate(24.827891 90.121794) scale(0.09 -0.09)">
     <defs>
      <path id="DejaVuSans-6e" d="M 3513 2113  L 3513 0  L 2938 0  L 2938 2094  Q 2938 2591 2744 2837  Q 2550 3084 2163 3084  Q 1697 3084 1428 2787  Q 1159 2491 1159 1978  L 1159 0  L 581 0  L 581 3500  L 1159 3500  L 1159 2956  Q 1366 3272 1645 3428  Q 1925 3584 2291 3584  Q 2894 3584 3203 3211  Q 3513 2838 3513 2113  z " transform="scale(0.015625)" />
      <path id="DejaVuSans-3d" d="M 678 2906  L 4684 2906  L 4684 2381  L 678 2381  L 678 2906  z M 678 1631  L 4684 1631  L 4684 1100  L 678 1100  L 678 1631  z " transform="scale(0.015625)" />
      <path id="DejaVuSans-37" d="M 525 4666  L 3525 4666  L 3525 4397  L 1831 0  L 1172 0  L 2766 4134  L 525 4134  L 525 4666  z " transform="scale(0.015625)" />
      <path id="DejaVuSans-32" d="M 1228 531  L 3431 531  L 3431 0  L 469 0  L 469 531  Q 828 903 1448 1529  Q 2069 2156 2228 2338  Q 2531 2678 2651 2914  Q 2772 3150 2772 3378  Q 2772 3750 2511 3984  Q 2250 4219 1831 4219  Q 1534 4219 1204 4116  Q 875 4013 500 3803  L 500 4441  Q 881 4594 1212 4672  Q 1544 4750 1819 4750  Q 2544 4750 2975 4387  Q 3406 4025 3406 3419  Q 3406 3131 3298 2873  Q 3191 2616 2906 2266  Q 2828 2175 2409 1742  Q 1991 1309 1228 531  z " transform="scale(0.015625)" />
     </defs>
     <use xlink:href="#DejaVuSans-6e" />
     <use xlink:href="#DejaVuSans-3d" x="63.378906" />
     <use xlink:href="#DejaVuSans-37" x="147.167969" />
     <use xlink:href="#DejaVuSans-37" x="210.791016" />
     <use xlink:href="#DejaVuSans-32" x="274.414062" />
    </g>
    
    <g style="fill: #444443" transform="translate(24.464375 100.199825) scale(0.09 -0.09)">
     <defs>
      <path id="DejaVuSans-53" d="M 3425 4513  L 3425 3897  Q 3066 4069 2747 4153  Q 2428 4238 2131 4238  Q 1616 4238 1336 4038  Q 1056 3838 1056 3469  Q 1056 3159 1242 3001  Q 1428 2844 1947 2747  L 2328 2669  Q 3034 2534 3370 2195  Q 3706 1856 3706 1288  Q 3706 609 3251 259  Q 2797 -91 1919 -91  Q 1588 -91 1214 -16  Q 841 59 441 206  L 441 856  Q 825 641 1194 531  Q 1563 422 1919 422  Q 2459 422 2753 634  Q 3047 847 3047 1241  Q 3047 1584 2836 1778  Q 2625 1972 2144 2069  L 1759 2144  Q 1053 2284 737 2584  Q 422 2884 422 3419  Q 422 4038 858 4394  Q 1294 4750 2059 4750  Q 2388 4750 2728 4690  Q 3069 4631 3425 4513  z " transform="scale(0.015625)" />
      <path id="DejaVuSans-65" d="M 3597 1894  L 3597 1613  L 953 1613  Q 991 1019 1311 708  Q 1631 397 2203 397  Q 2534 397 2845 478  Q 3156 559 3463 722  L 3463 178  Q 3153 47 2828 -22  Q 2503 -91 2169 -91  Q 1331 -91 842 396  Q 353 884 353 1716  Q 353 2575 817 3079  Q 1281 3584 2069 3584  Q 2775 3584 3186 3129  Q 3597 2675 3597 1894  z M 3022 2063  Q 3016 2534 2758 2815  Q 2500 3097 2075 3097  Q 1594 3097 1305 2825  Q 1016 2553 972 2059  L 3022 2063  z " transform="scale(0.015625)" />
      <path id="DejaVuSans-76" d="M 191 3500  L 800 3500  L 1894 563  L 2988 3500  L 3597 3500  L 2284 0  L 1503 0  L 191 3500  z " transform="scale(0.015625)" />
      <path id="DejaVuSans-72" d="M 2631 2963  Q 2534 3019 2420 3045  Q 2306 3072 2169 3072  Q 1681 3072 1420 2755  Q 1159 2438 1159 1844  L 1159 0  L 581 0  L 581 3500  L 1159 3500  L 1159 2956  Q 1341 3275 1631 3429  Q 1922 3584 2338 3584  Q 2397 3584 2469 3576  Q 2541 3569 2628 3553  L 2631 2963  z " transform="scale(0.015625)" />
     </defs>
     <use xlink:href="#DejaVuSans-53" />
     <use xlink:href="#DejaVuSans-65" x="63.476562" />
     <use xlink:href="#DejaVuSans-76" x="125" />
     <use xlink:href="#DejaVuSans-65" x="184.179688" />
     <use xlink:href="#DejaVuSans-72" x="245.703125" />
     <use xlink:href="#DejaVuSans-65" x="284.566406" />
    </g>
   </g>
  </g>
 </g>
</svg></g>


<g id="node2" class="node">
<title>node0</title>
<svg width="159px" height="88px" viewBox="0 0 211.5 118.01625" version="1.1" preserveAspectRatio="xMinYMin meet" x="69.5" y="-308">
 <metadata>
  <rdf:RDF>
   <ns2:Work>
    <dc:type rdf:resource="http://purl.org/dc/dcmitype/StillImage" />
    <dc:date>2025-02-01T02:17:04.259120</dc:date>
    <dc:format>image/svg+xml</dc:format>
    <dc:creator>
     <ns2:Agent>
      <dc:title>Matplotlib v3.9.3, https://matplotlib.org/</dc:title>
     </ns2:Agent>
    </dc:creator>
   </ns2:Work>
  </rdf:RDF>
 </metadata>
 <defs>
  <style type="text/css">*{stroke-linejoin: round; stroke-linecap: butt}</style>
 </defs>
 <g id="figure_1">
  <g id="patch_1">
   <path d="M 0 118.01625  L 211.5 118.01625  L 211.5 0  L 0 0  z " style="fill: #ffffff" />
  </g>
  <g id="axes_1">
   <g id="patch_2">
    <path d="M 27.36 83.16  L 211.5 83.16  L 211.5 -0  L 27.36 -0  z " style="fill: #ffffff" />
   </g>
   <g id="patch_3">
    <path d="M 43.372174 83.16  L 51.378261 83.16  L 51.378261 12.612882  L 43.372174 12.612882  z " clip-path="url(#p4316e569c1)" style="fill: #fefebb; stroke: #444443; stroke-width: 0.5; stroke-linejoin: miter" />
   </g>
   <g id="patch_4">
    <path d="M 51.378261 83.16  L 59.384348 83.16  L 59.384348 83.16  L 51.378261 83.16  z " clip-path="url(#p4316e569c1)" style="fill: #fefebb; stroke: #444443; stroke-width: 0.5; stroke-linejoin: miter" />
   </g>
   <g id="patch_5">
    <path d="M 59.384348 83.16  L 67.390435 83.16  L 67.390435 83.16  L 59.384348 83.16  z " clip-path="url(#p4316e569c1)" style="fill: #fefebb; stroke: #444443; stroke-width: 0.5; stroke-linejoin: miter" />
   </g>
   <g id="patch_6">
    <path d="M 67.390435 83.16  L 75.396522 83.16  L 75.396522 83.16  L 67.390435 83.16  z " clip-path="url(#p4316e569c1)" style="fill: #fefebb; stroke: #444443; stroke-width: 0.5; stroke-linejoin: miter" />
   </g>
   <g id="patch_7">
    <path d="M 75.396522 83.16  L 83.402609 83.16  L 83.402609 83.16  L 75.396522 83.16  z " clip-path="url(#p4316e569c1)" style="fill: #fefebb; stroke: #444443; stroke-width: 0.5; stroke-linejoin: miter" />
   </g>
   <g id="patch_8">
    <path d="M 83.402609 83.16  L 91.408696 83.16  L 91.408696 83.16  L 83.402609 83.16  z " clip-path="url(#p4316e569c1)" style="fill: #fefebb; stroke: #444443; stroke-width: 0.5; stroke-linejoin: miter" />
   </g>
   <g id="patch_9">
    <path d="M 91.408696 83.16  L 99.414783 83.16  L 99.414783 83.16  L 91.408696 83.16  z " clip-path="url(#p4316e569c1)" style="fill: #fefebb; stroke: #444443; stroke-width: 0.5; stroke-linejoin: miter" />
   </g>
   <g id="patch_10">
    <path d="M 99.414783 83.16  L 107.42087 83.16  L 107.42087 83.16  L 99.414783 83.16  z " clip-path="url(#p4316e569c1)" style="fill: #fefebb; stroke: #444443; stroke-width: 0.5; stroke-linejoin: miter" />
   </g>
   <g id="patch_11">
    <path d="M 107.42087 83.16  L 115.426957 83.16  L 115.426957 83.16  L 107.42087 83.16  z " clip-path="url(#p4316e569c1)" style="fill: #fefebb; stroke: #444443; stroke-width: 0.5; stroke-linejoin: miter" />
   </g>
   <g id="patch_12">
    <path d="M 115.426957 83.16  L 123.433043 83.16  L 123.433043 83.16  L 115.426957 83.16  z " clip-path="url(#p4316e569c1)" style="fill: #fefebb; stroke: #444443; stroke-width: 0.5; stroke-linejoin: miter" />
   </g>
   <g id="patch_13">
    <path d="M 123.433043 83.16  L 131.43913 83.16  L 131.43913 83.16  L 123.433043 83.16  z " clip-path="url(#p4316e569c1)" style="fill: #fefebb; stroke: #444443; stroke-width: 0.5; stroke-linejoin: miter" />
   </g>
   <g id="patch_14">
    <path d="M 131.43913 83.16  L 139.445217 83.16  L 139.445217 83.16  L 131.43913 83.16  z " clip-path="url(#p4316e569c1)" style="fill: #fefebb; stroke: #444443; stroke-width: 0.5; stroke-linejoin: miter" />
   </g>
   <g id="patch_15">
    <path d="M 139.445217 83.16  L 147.451304 83.16  L 147.451304 83.16  L 139.445217 83.16  z " clip-path="url(#p4316e569c1)" style="fill: #fefebb; stroke: #444443; stroke-width: 0.5; stroke-linejoin: miter" />
   </g>
   <g id="patch_16">
    <path d="M 147.451304 83.16  L 155.457391 83.16  L 155.457391 83.16  L 147.451304 83.16  z " clip-path="url(#p4316e569c1)" style="fill: #fefebb; stroke: #444443; stroke-width: 0.5; stroke-linejoin: miter" />
   </g>
   <g id="patch_17">
    <path d="M 155.457391 83.16  L 163.463478 83.16  L 163.463478 83.16  L 155.457391 83.16  z " clip-path="url(#p4316e569c1)" style="fill: #fefebb; stroke: #444443; stroke-width: 0.5; stroke-linejoin: miter" />
   </g>
   <g id="patch_18">
    <path d="M 163.463478 83.16  L 171.469565 83.16  L 171.469565 83.16  L 163.463478 83.16  z " clip-path="url(#p4316e569c1)" style="fill: #fefebb; stroke: #444443; stroke-width: 0.5; stroke-linejoin: miter" />
   </g>
   <g id="patch_19">
    <path d="M 171.469565 83.16  L 179.475652 83.16  L 179.475652 83.16  L 171.469565 83.16  z " clip-path="url(#p4316e569c1)" style="fill: #fefebb; stroke: #444443; stroke-width: 0.5; stroke-linejoin: miter" />
   </g>
   <g id="patch_20">
    <path d="M 179.475652 83.16  L 187.481739 83.16  L 187.481739 83.16  L 179.475652 83.16  z " clip-path="url(#p4316e569c1)" style="fill: #fefebb; stroke: #444443; stroke-width: 0.5; stroke-linejoin: miter" />
   </g>
   <g id="patch_21">
    <path d="M 187.481739 83.16  L 195.487826 83.16  L 195.487826 83.16  L 187.481739 83.16  z " clip-path="url(#p4316e569c1)" style="fill: #fefebb; stroke: #444443; stroke-width: 0.5; stroke-linejoin: miter" />
   </g>
   <g id="patch_22">
    <path d="M 43.372174 12.612882  L 51.378261 12.612882  L 51.378261 3.96  L 43.372174 3.96  z " clip-path="url(#p4316e569c1)" style="fill: #a1dab4; stroke: #444443; stroke-width: 0.5; stroke-linejoin: miter" />
   </g>
   <g id="patch_23">
    <path d="M 51.378261 83.16  L 59.384348 83.16  L 59.384348 82.834791  L 51.378261 82.834791  z " clip-path="url(#p4316e569c1)" style="fill: #a1dab4; stroke: #444443; stroke-width: 0.5; stroke-linejoin: miter" />
   </g>
   <g id="patch_24">
    <path d="M 59.384348 83.16  L 67.390435 83.16  L 67.390435 83.055469  L 59.384348 83.055469  z " clip-path="url(#p4316e569c1)" style="fill: #a1dab4; stroke: #444443; stroke-width: 0.5; stroke-linejoin: miter" />
   </g>
   <g id="patch_25">
    <path d="M 67.390435 83.16  L 75.396522 83.16  L 75.396522 83.125156  L 67.390435 83.125156  z " clip-path="url(#p4316e569c1)" style="fill: #a1dab4; stroke: #444443; stroke-width: 0.5; stroke-linejoin: miter" />
   </g>
   <g id="patch_26">
    <path d="M 75.396522 83.16  L 83.402609 83.16  L 83.402609 83.113542  L 75.396522 83.113542  z " clip-path="url(#p4316e569c1)" style="fill: #a1dab4; stroke: #444443; stroke-width: 0.5; stroke-linejoin: miter" />
   </g>
   <g id="patch_27">
    <path d="M 83.402609 83.16  L 91.408696 83.16  L 91.408696 83.136771  L 83.402609 83.136771  z " clip-path="url(#p4316e569c1)" style="fill: #a1dab4; stroke: #444443; stroke-width: 0.5; stroke-linejoin: miter" />
   </g>
   <g id="patch_28">
    <path d="M 91.408696 83.16  L 99.414783 83.16  L 99.414783 83.148385  L 91.408696 83.148385  z " clip-path="url(#p4316e569c1)" style="fill: #a1dab4; stroke: #444443; stroke-width: 0.5; stroke-linejoin: miter" />
   </g>
   <g id="patch_29">
    <path d="M 99.414783 83.16  L 107.42087 83.16  L 107.42087 83.148385  L 99.414783 83.148385  z " clip-path="url(#p4316e569c1)" style="fill: #a1dab4; stroke: #444443; stroke-width: 0.5; stroke-linejoin: miter" />
   </g>
   <g id="patch_30">
    <path d="M 107.42087 83.16  L 115.426957 83.16  L 115.426957 83.16  L 107.42087 83.16  z " clip-path="url(#p4316e569c1)" style="fill: #a1dab4; stroke: #444443; stroke-width: 0.5; stroke-linejoin: miter" />
   </g>
   <g id="patch_31">
    <path d="M 115.426957 83.16  L 123.433043 83.16  L 123.433043 83.16  L 115.426957 83.16  z " clip-path="url(#p4316e569c1)" style="fill: #a1dab4; stroke: #444443; stroke-width: 0.5; stroke-linejoin: miter" />
   </g>
   <g id="patch_32">
    <path d="M 123.433043 83.16  L 131.43913 83.16  L 131.43913 83.148385  L 123.433043 83.148385  z " clip-path="url(#p4316e569c1)" style="fill: #a1dab4; stroke: #444443; stroke-width: 0.5; stroke-linejoin: miter" />
   </g>
   <g id="patch_33">
    <path d="M 131.43913 83.16  L 139.445217 83.16  L 139.445217 83.16  L 131.43913 83.16  z " clip-path="url(#p4316e569c1)" style="fill: #a1dab4; stroke: #444443; stroke-width: 0.5; stroke-linejoin: miter" />
   </g>
   <g id="patch_34">
    <path d="M 139.445217 83.16  L 147.451304 83.16  L 147.451304 83.16  L 139.445217 83.16  z " clip-path="url(#p4316e569c1)" style="fill: #a1dab4; stroke: #444443; stroke-width: 0.5; stroke-linejoin: miter" />
   </g>
   <g id="patch_35">
    <path d="M 147.451304 83.16  L 155.457391 83.16  L 155.457391 83.16  L 147.451304 83.16  z " clip-path="url(#p4316e569c1)" style="fill: #a1dab4; stroke: #444443; stroke-width: 0.5; stroke-linejoin: miter" />
   </g>
   <g id="patch_36">
    <path d="M 155.457391 83.16  L 163.463478 83.16  L 163.463478 83.16  L 155.457391 83.16  z " clip-path="url(#p4316e569c1)" style="fill: #a1dab4; stroke: #444443; stroke-width: 0.5; stroke-linejoin: miter" />
   </g>
   <g id="patch_37">
    <path d="M 163.463478 83.16  L 171.469565 83.16  L 171.469565 83.16  L 163.463478 83.16  z " clip-path="url(#p4316e569c1)" style="fill: #a1dab4; stroke: #444443; stroke-width: 0.5; stroke-linejoin: miter" />
   </g>
   <g id="patch_38">
    <path d="M 171.469565 83.16  L 179.475652 83.16  L 179.475652 83.16  L 171.469565 83.16  z " clip-path="url(#p4316e569c1)" style="fill: #a1dab4; stroke: #444443; stroke-width: 0.5; stroke-linejoin: miter" />
   </g>
   <g id="patch_39">
    <path d="M 179.475652 83.16  L 187.481739 83.16  L 187.481739 83.16  L 179.475652 83.16  z " clip-path="url(#p4316e569c1)" style="fill: #a1dab4; stroke: #444443; stroke-width: 0.5; stroke-linejoin: miter" />
   </g>
   <g id="patch_40">
    <path d="M 187.481739 83.16  L 195.487826 83.16  L 195.487826 83.148385  L 187.481739 83.148385  z " clip-path="url(#p4316e569c1)" style="fill: #a1dab4; stroke: #444443; stroke-width: 0.5; stroke-linejoin: miter" />
   </g>
   <g id="patch_41">
    <path d="M 43.46229 83.9916  L 40.14777 92.3076  L 46.77681 92.3076  z " style="fill: #444443" />
   </g>
   <g id="matplotlib.axis_1">
    <g id="xtick_1">
     <g id="line2d_1">
      <defs>
       <path id="m09fd8c7e4c" d="M 0 0  L 0 3.5  " style="stroke: #000000; stroke-width: 0.3" />
      </defs>
      <g>
       <use xlink:href="#m09fd8c7e4c" x="43.372174" y="83.16" style="stroke: #000000; stroke-width: 0.3" />
      </g>
     </g>
     <g id="text_1">
      
      <g style="fill: #444443" transform="translate(40.827174 100.73875) scale(0.08 -0.08)">
       <defs>
        <path id="DejaVuSans-30" d="M 2034 4250  Q 1547 4250 1301 3770  Q 1056 3291 1056 2328  Q 1056 1369 1301 889  Q 1547 409 2034 409  Q 2525 409 2770 889  Q 3016 1369 3016 2328  Q 3016 3291 2770 3770  Q 2525 4250 2034 4250  z M 2034 4750  Q 2819 4750 3233 4129  Q 3647 3509 3647 2328  Q 3647 1150 3233 529  Q 2819 -91 2034 -91  Q 1250 -91 836 529  Q 422 1150 422 2328  Q 422 3509 836 4129  Q 1250 4750 2034 4750  z " transform="scale(0.015625)" />
       </defs>
       <use xlink:href="#DejaVuSans-30" />
      </g>
     </g>
    </g>
    <g id="xtick_2">
     <g id="line2d_2">
      <g>
       <use xlink:href="#m09fd8c7e4c" x="195.487826" y="83.16" style="stroke: #000000; stroke-width: 0.3" />
      </g>
     </g>
     <g id="text_2">
      
      <g style="fill: #444443" transform="translate(187.852826 100.73875) scale(0.08 -0.08)">
       <defs>
        <path id="DejaVuSans-38" d="M 2034 2216  Q 1584 2216 1326 1975  Q 1069 1734 1069 1313  Q 1069 891 1326 650  Q 1584 409 2034 409  Q 2484 409 2743 651  Q 3003 894 3003 1313  Q 3003 1734 2745 1975  Q 2488 2216 2034 2216  z M 1403 2484  Q 997 2584 770 2862  Q 544 3141 544 3541  Q 544 4100 942 4425  Q 1341 4750 2034 4750  Q 2731 4750 3128 4425  Q 3525 4100 3525 3541  Q 3525 3141 3298 2862  Q 3072 2584 2669 2484  Q 3125 2378 3379 2068  Q 3634 1759 3634 1313  Q 3634 634 3220 271  Q 2806 -91 2034 -91  Q 1263 -91 848 271  Q 434 634 434 1313  Q 434 1759 690 2068  Q 947 2378 1403 2484  z M 1172 3481  Q 1172 3119 1398 2916  Q 1625 2713 2034 2713  Q 2441 2713 2670 2916  Q 2900 3119 2900 3481  Q 2900 3844 2670 4047  Q 2441 4250 2034 4250  Q 1625 4250 1398 4047  Q 1172 3844 1172 3481  z " transform="scale(0.015625)" />
        <path id="DejaVuSans-34" d="M 2419 4116  L 825 1625  L 2419 1625  L 2419 4116  z M 2253 4666  L 3047 4666  L 3047 1625  L 3713 1625  L 3713 1100  L 3047 1100  L 3047 0  L 2419 0  L 2419 1100  L 313 1100  L 313 1709  L 2253 4666  z " transform="scale(0.015625)" />
       </defs>
       <use xlink:href="#DejaVuSans-38" />
       <use xlink:href="#DejaVuSans-34" x="63.623047" />
       <use xlink:href="#DejaVuSans-34" x="127.246094" />
      </g>
     </g>
    </g>
    <g id="text_3">
     
     <g style="fill: #444443" transform="translate(97.540312 115.520625) scale(0.12 -0.12)">
      <defs>
       <path id="DejaVuSans-69" d="M 603 3500  L 1178 3500  L 1178 0  L 603 0  L 603 3500  z M 603 4863  L 1178 4863  L 1178 4134  L 603 4134  L 603 4863  z " transform="scale(0.015625)" />
       <path id="DejaVuSans-6e" d="M 3513 2113  L 3513 0  L 2938 0  L 2938 2094  Q 2938 2591 2744 2837  Q 2550 3084 2163 3084  Q 1697 3084 1428 2787  Q 1159 2491 1159 1978  L 1159 0  L 581 0  L 581 3500  L 1159 3500  L 1159 2956  Q 1366 3272 1645 3428  Q 1925 3584 2291 3584  Q 2894 3584 3203 3211  Q 3513 2838 3513 2113  z " transform="scale(0.015625)" />
       <path id="DejaVuSans-6a" d="M 603 3500  L 1178 3500  L 1178 -63  Q 1178 -731 923 -1031  Q 669 -1331 103 -1331  L -116 -1331  L -116 -844  L 38 -844  Q 366 -844 484 -692  Q 603 -541 603 -63  L 603 3500  z M 603 4863  L 1178 4863  L 1178 4134  L 603 4134  L 603 4863  z " transform="scale(0.015625)" />
       <path id="DejaVuSans-75" d="M 544 1381  L 544 3500  L 1119 3500  L 1119 1403  Q 1119 906 1312 657  Q 1506 409 1894 409  Q 2359 409 2629 706  Q 2900 1003 2900 1516  L 2900 3500  L 3475 3500  L 3475 0  L 2900 0  L 2900 538  Q 2691 219 2414 64  Q 2138 -91 1772 -91  Q 1169 -91 856 284  Q 544 659 544 1381  z M 1991 3584  L 1991 3584  z " transform="scale(0.015625)" />
       <path id="DejaVuSans-72" d="M 2631 2963  Q 2534 3019 2420 3045  Q 2306 3072 2169 3072  Q 1681 3072 1420 2755  Q 1159 2438 1159 1844  L 1159 0  L 581 0  L 581 3500  L 1159 3500  L 1159 2956  Q 1341 3275 1631 3429  Q 1922 3584 2338 3584  Q 2397 3584 2469 3576  Q 2541 3569 2628 3553  L 2631 2963  z " transform="scale(0.015625)" />
       <path id="DejaVuSans-65" d="M 3597 1894  L 3597 1613  L 953 1613  Q 991 1019 1311 708  Q 1631 397 2203 397  Q 2534 397 2845 478  Q 3156 559 3463 722  L 3463 178  Q 3153 47 2828 -22  Q 2503 -91 2169 -91  Q 1331 -91 842 396  Q 353 884 353 1716  Q 353 2575 817 3079  Q 1281 3584 2069 3584  Q 2775 3584 3186 3129  Q 3597 2675 3597 1894  z M 3022 2063  Q 3016 2534 2758 2815  Q 2500 3097 2075 3097  Q 1594 3097 1305 2825  Q 1016 2553 972 2059  L 3022 2063  z " transform="scale(0.015625)" />
       <path id="DejaVuSans-73" d="M 2834 3397  L 2834 2853  Q 2591 2978 2328 3040  Q 2066 3103 1784 3103  Q 1356 3103 1142 2972  Q 928 2841 928 2578  Q 928 2378 1081 2264  Q 1234 2150 1697 2047  L 1894 2003  Q 2506 1872 2764 1633  Q 3022 1394 3022 966  Q 3022 478 2636 193  Q 2250 -91 1575 -91  Q 1294 -91 989 -36  Q 684 19 347 128  L 347 722  Q 666 556 975 473  Q 1284 391 1588 391  Q 1994 391 2212 530  Q 2431 669 2431 922  Q 2431 1156 2273 1281  Q 2116 1406 1581 1522  L 1381 1569  Q 847 1681 609 1914  Q 372 2147 372 2553  Q 372 3047 722 3315  Q 1072 3584 1716 3584  Q 2034 3584 2315 3537  Q 2597 3491 2834 3397  z " transform="scale(0.015625)" />
      </defs>
      <use xlink:href="#DejaVuSans-69" />
      <use xlink:href="#DejaVuSans-6e" x="27.783203" />
      <use xlink:href="#DejaVuSans-6a" x="91.162109" />
      <use xlink:href="#DejaVuSans-75" x="118.945312" />
      <use xlink:href="#DejaVuSans-72" x="182.324219" />
      <use xlink:href="#DejaVuSans-69" x="223.4375" />
      <use xlink:href="#DejaVuSans-65" x="251.220703" />
      <use xlink:href="#DejaVuSans-73" x="312.744141" />
     </g>
    </g>
   </g>
   <g id="matplotlib.axis_2">
    <g id="ytick_1">
     <g id="line2d_3">
      <defs>
       <path id="m9fc310c9a7" d="M 0 0  L -3.5 0  " style="stroke: #000000; stroke-width: 0.3" />
      </defs>
      <g>
       <use xlink:href="#m9fc310c9a7" x="27.36" y="83.16" style="stroke: #000000; stroke-width: 0.3" />
      </g>
     </g>
     <g id="text_4">
      
      <g style="fill: #444443" transform="translate(15.27 86.199375) scale(0.08 -0.08)">
       <use xlink:href="#DejaVuSans-30" />
      </g>
     </g>
    </g>
    <g id="ytick_2">
     <g id="line2d_4">
      <g>
       <use xlink:href="#m9fc310c9a7" x="27.36" y="3.96" style="stroke: #000000; stroke-width: 0.3" />
      </g>
     </g>
     <g id="text_5">
      
      <g style="fill: #444443" transform="translate(0 6.999375) scale(0.08 -0.08)">
       <defs>
        <path id="DejaVuSans-36" d="M 2113 2584  Q 1688 2584 1439 2293  Q 1191 2003 1191 1497  Q 1191 994 1439 701  Q 1688 409 2113 409  Q 2538 409 2786 701  Q 3034 994 3034 1497  Q 3034 2003 2786 2293  Q 2538 2584 2113 2584  z M 3366 4563  L 3366 3988  Q 3128 4100 2886 4159  Q 2644 4219 2406 4219  Q 1781 4219 1451 3797  Q 1122 3375 1075 2522  Q 1259 2794 1537 2939  Q 1816 3084 2150 3084  Q 2853 3084 3261 2657  Q 3669 2231 3669 1497  Q 3669 778 3244 343  Q 2819 -91 2113 -91  Q 1303 -91 875 529  Q 447 1150 447 2328  Q 447 3434 972 4092  Q 1497 4750 2381 4750  Q 2619 4750 2861 4703  Q 3103 4656 3366 4563  z " transform="scale(0.015625)" />
        <path id="DejaVuSans-31" d="M 794 531  L 1825 531  L 1825 4091  L 703 3866  L 703 4441  L 1819 4666  L 2450 4666  L 2450 531  L 3481 531  L 3481 0  L 794 0  L 794 531  z " transform="scale(0.015625)" />
        <path id="DejaVuSans-39" d="M 703 97  L 703 672  Q 941 559 1184 500  Q 1428 441 1663 441  Q 2288 441 2617 861  Q 2947 1281 2994 2138  Q 2813 1869 2534 1725  Q 2256 1581 1919 1581  Q 1219 1581 811 2004  Q 403 2428 403 3163  Q 403 3881 828 4315  Q 1253 4750 1959 4750  Q 2769 4750 3195 4129  Q 3622 3509 3622 2328  Q 3622 1225 3098 567  Q 2575 -91 1691 -91  Q 1453 -91 1209 -44  Q 966 3 703 97  z M 1959 2075  Q 2384 2075 2632 2365  Q 2881 2656 2881 3163  Q 2881 3666 2632 3958  Q 2384 4250 1959 4250  Q 1534 4250 1286 3958  Q 1038 3666 1038 3163  Q 1038 2656 1286 2365  Q 1534 2075 1959 2075  z " transform="scale(0.015625)" />
       </defs>
       <use xlink:href="#DejaVuSans-36" />
       <use xlink:href="#DejaVuSans-38" x="63.623047" />
       <use xlink:href="#DejaVuSans-31" x="127.246094" />
       <use xlink:href="#DejaVuSans-39" x="190.869141" />
      </g>
     </g>
    </g>
   </g>
   <g id="patch_42">
    <path d="M 27.36 83.16  L 27.36 -0  " style="fill: none; stroke: #444443; stroke-width: 0.3; stroke-linejoin: miter; stroke-linecap: square" />
   </g>
   <g id="patch_43">
    <path d="M 27.36 83.16  L 211.5 83.16  " style="fill: none; stroke: #444443; stroke-width: 0.3; stroke-linejoin: miter; stroke-linecap: square" />
   </g>
  </g>
 </g>
 <defs>
  <clipPath id="p4316e569c1">
   <rect x="27.36" y="-0" width="184.14" height="83.16" />
  </clipPath>
 </defs>
</svg></g>

<g id="edge4" class="edge">
<title>node0-&gt;node1</title>
<path fill="none" stroke="#444443" stroke-width="0.3" d="M122.81,-215.97C115.29,-202.19 107.25,-187.48 100.42,-174.97" />
<polygon fill="#444443" stroke="#444443" stroke-width="0.3" points="101.48,-174.01 98.34,-171.17 99.03,-175.35 101.48,-174.01" />
<text text-anchor="start" x="118.5" y="-196.8" font-family="Arial" font-size="14.00" fill="#444443"> &#160;&#8804;</text>
</g>

<g id="edge5" class="edge">
<title>node0-&gt;leaf4</title>
<path fill="none" stroke="#444443" stroke-width="0.3" d="M174.58,-215.97C179.5,-207.1 184.64,-197.85 189.52,-189.04" />
<polygon fill="#444443" stroke="#444443" stroke-width="0.3" points="190.88,-189.47 191.6,-185.3 188.43,-188.12 190.88,-189.47" />
<text text-anchor="start" x="185.5" y="-196.8" font-family="Arial" font-size="14.00" fill="#444443"> &#160;&gt;</text>
</g>


<g id="node6" class="node">
<title>legend</title>
<polygon fill="none" stroke="black" stroke-width="0" points="330,-288.5 239,-288.5 239,-239.5 330,-239.5 330,-288.5" />
<svg width="87px" height="45px" viewBox="0 0 116.170313 60.3125" version="1.1" preserveAspectRatio="xMinYMin meet" x="241.5" y="-286">
 <metadata>
  <rdf:RDF>
   <ns2:Work>
    <dc:type rdf:resource="http://purl.org/dc/dcmitype/StillImage" />
    <dc:date>2025-02-01T02:17:03.286605</dc:date>
    <dc:format>image/svg+xml</dc:format>
    <dc:creator>
     <ns2:Agent>
      <dc:title>Matplotlib v3.9.3, https://matplotlib.org/</dc:title>
     </ns2:Agent>
    </dc:creator>
   </ns2:Work>
  </rdf:RDF>
 </metadata>
 <defs>
  <style type="text/css">*{stroke-linejoin: round; stroke-linecap: butt}</style>
 </defs>
 <g id="figure_1">
  <g id="patch_1">
   <path d="M 0 60.3125  L 116.170313 60.3125  L 116.170313 0  L 0 0  z " style="fill: #ffffff" />
  </g>
  <g id="axes_1">
   <g id="legend_1">
    <g id="patch_2">
     <path d="M 2 60.3125  L 109.170313 60.3125  Q 111.170313 60.3125 111.170313 58.3125  L 111.170313 7  Q 111.170313 5 109.170313 5  L 2 5  Q 0 5 0 7  L 0 58.3125  Q 0 60.3125 2 60.3125  z " style="fill: #ffffff; opacity: 0.8; stroke: #444443; stroke-width: 0.5; stroke-linejoin: miter" />
    </g>
    <g id="text_1">
     
     <g style="fill: #444443" transform="translate(8 20.598437) scale(0.1 -0.1)">
      <defs>
       <path id="DejaVuSans-Bold-74" d="M 1759 4494  L 1759 3500  L 2913 3500  L 2913 2700  L 1759 2700  L 1759 1216  Q 1759 972 1856 886  Q 1953 800 2241 800  L 2816 800  L 2816 0  L 1856 0  Q 1194 0 917 276  Q 641 553 641 1216  L 641 2700  L 84 2700  L 84 3500  L 641 3500  L 641 4494  L 1759 4494  z " transform="scale(0.015625)" />
       <path id="DejaVuSans-Bold-6f" d="M 2203 2784  Q 1831 2784 1636 2517  Q 1441 2250 1441 1747  Q 1441 1244 1636 976  Q 1831 709 2203 709  Q 2569 709 2762 976  Q 2956 1244 2956 1747  Q 2956 2250 2762 2517  Q 2569 2784 2203 2784  z M 2203 3584  Q 3106 3584 3614 3096  Q 4122 2609 4122 1747  Q 4122 884 3614 396  Q 3106 -91 2203 -91  Q 1297 -91 786 396  Q 275 884 275 1747  Q 275 2609 786 3096  Q 1297 3584 2203 3584  z " transform="scale(0.015625)" />
       <path id="DejaVuSans-Bold-72" d="M 3138 2547  Q 2991 2616 2845 2648  Q 2700 2681 2553 2681  Q 2122 2681 1889 2404  Q 1656 2128 1656 1613  L 1656 0  L 538 0  L 538 3500  L 1656 3500  L 1656 2925  Q 1872 3269 2151 3426  Q 2431 3584 2822 3584  Q 2878 3584 2943 3579  Q 3009 3575 3134 3559  L 3138 2547  z " transform="scale(0.015625)" />
       <path id="DejaVuSans-Bold-6e" d="M 4056 2131  L 4056 0  L 2931 0  L 2931 347  L 2931 1631  Q 2931 2084 2911 2256  Q 2891 2428 2841 2509  Q 2775 2619 2662 2680  Q 2550 2741 2406 2741  Q 2056 2741 1856 2470  Q 1656 2200 1656 1722  L 1656 0  L 538 0  L 538 3500  L 1656 3500  L 1656 2988  Q 1909 3294 2193 3439  Q 2478 3584 2822 3584  Q 3428 3584 3742 3212  Q 4056 2841 4056 2131  z " transform="scale(0.015625)" />
       <path id="DejaVuSans-Bold-61" d="M 2106 1575  Q 1756 1575 1579 1456  Q 1403 1338 1403 1106  Q 1403 894 1545 773  Q 1688 653 1941 653  Q 2256 653 2472 879  Q 2688 1106 2688 1447  L 2688 1575  L 2106 1575  z M 3816 1997  L 3816 0  L 2688 0  L 2688 519  Q 2463 200 2181 54  Q 1900 -91 1497 -91  Q 953 -91 614 226  Q 275 544 275 1050  Q 275 1666 698 1953  Q 1122 2241 2028 2241  L 2688 2241  L 2688 2328  Q 2688 2594 2478 2717  Q 2269 2841 1825 2841  Q 1466 2841 1156 2769  Q 847 2697 581 2553  L 581 3406  Q 941 3494 1303 3539  Q 1666 3584 2028 3584  Q 2975 3584 3395 3211  Q 3816 2838 3816 1997  z " transform="scale(0.015625)" />
       <path id="DejaVuSans-Bold-64" d="M 2919 2988  L 2919 4863  L 4044 4863  L 4044 0  L 2919 0  L 2919 506  Q 2688 197 2409 53  Q 2131 -91 1766 -91  Q 1119 -91 703 423  Q 288 938 288 1747  Q 288 2556 703 3070  Q 1119 3584 1766 3584  Q 2128 3584 2408 3439  Q 2688 3294 2919 2988  z M 2181 722  Q 2541 722 2730 984  Q 2919 1247 2919 1747  Q 2919 2247 2730 2509  Q 2541 2772 2181 2772  Q 1825 2772 1636 2509  Q 1447 2247 1447 1747  Q 1447 1247 1636 984  Q 1825 722 2181 722  z " transform="scale(0.015625)" />
       <path id="DejaVuSans-Bold-5f" d="M 3200 -916  L 3200 -1509  L 0 -1509  L 0 -916  L 3200 -916  z " transform="scale(0.015625)" />
       <path id="DejaVuSans-Bold-73" d="M 3272 3391  L 3272 2541  Q 2913 2691 2578 2766  Q 2244 2841 1947 2841  Q 1628 2841 1473 2761  Q 1319 2681 1319 2516  Q 1319 2381 1436 2309  Q 1553 2238 1856 2203  L 2053 2175  Q 2913 2066 3209 1816  Q 3506 1566 3506 1031  Q 3506 472 3093 190  Q 2681 -91 1863 -91  Q 1516 -91 1145 -36  Q 775 19 384 128  L 384 978  Q 719 816 1070 734  Q 1422 653 1784 653  Q 2113 653 2278 743  Q 2444 834 2444 1013  Q 2444 1163 2330 1236  Q 2216 1309 1875 1350  L 1678 1375  Q 931 1469 631 1722  Q 331 1975 331 2491  Q 331 3047 712 3315  Q 1094 3584 1881 3584  Q 2191 3584 2531 3537  Q 2872 3491 3272 3391  z " transform="scale(0.015625)" />
       <path id="DejaVuSans-Bold-65" d="M 4031 1759  L 4031 1441  L 1416 1441  Q 1456 1047 1700 850  Q 1944 653 2381 653  Q 2734 653 3104 758  Q 3475 863 3866 1075  L 3866 213  Q 3469 63 3072 -14  Q 2675 -91 2278 -91  Q 1328 -91 801 392  Q 275 875 275 1747  Q 275 2603 792 3093  Q 1309 3584 2216 3584  Q 3041 3584 3536 3087  Q 4031 2591 4031 1759  z M 2881 2131  Q 2881 2450 2695 2645  Q 2509 2841 2209 2841  Q 1884 2841 1681 2658  Q 1478 2475 1428 2131  L 2881 2131  z " transform="scale(0.015625)" />
       <path id="DejaVuSans-Bold-76" d="M 97 3500  L 1216 3500  L 2088 1081  L 2956 3500  L 4078 3500  L 2700 0  L 1472 0  L 97 3500  z " transform="scale(0.015625)" />
       <path id="DejaVuSans-Bold-69" d="M 538 3500  L 1656 3500  L 1656 0  L 538 0  L 538 3500  z M 538 4863  L 1656 4863  L 1656 3950  L 538 3950  L 538 4863  z " transform="scale(0.015625)" />
       <path id="DejaVuSans-Bold-79" d="M 78 3500  L 1197 3500  L 2138 1125  L 2938 3500  L 4056 3500  L 2584 -331  Q 2363 -916 2067 -1148  Q 1772 -1381 1288 -1381  L 641 -1381  L 641 -647  L 991 -647  Q 1275 -647 1404 -556  Q 1534 -466 1606 -231  L 1638 -134  L 78 3500  z " transform="scale(0.015625)" />
      </defs>
      <use xlink:href="#DejaVuSans-Bold-74" />
      <use xlink:href="#DejaVuSans-Bold-6f" x="47.802734" />
      <use xlink:href="#DejaVuSans-Bold-72" x="116.503906" />
      <use xlink:href="#DejaVuSans-Bold-6e" x="165.820312" />
      <use xlink:href="#DejaVuSans-Bold-61" x="237.011719" />
      <use xlink:href="#DejaVuSans-Bold-64" x="304.492188" />
      <use xlink:href="#DejaVuSans-Bold-6f" x="376.074219" />
      <use xlink:href="#DejaVuSans-Bold-5f" x="444.775391" />
      <use xlink:href="#DejaVuSans-Bold-73" x="494.775391" />
      <use xlink:href="#DejaVuSans-Bold-65" x="554.296875" />
      <use xlink:href="#DejaVuSans-Bold-76" x="622.119141" />
      <use xlink:href="#DejaVuSans-Bold-65" x="687.304688" />
      <use xlink:href="#DejaVuSans-Bold-72" x="755.126953" />
      <use xlink:href="#DejaVuSans-Bold-69" x="804.443359" />
      <use xlink:href="#DejaVuSans-Bold-74" x="838.720703" />
      <use xlink:href="#DejaVuSans-Bold-79" x="886.523438" />
     </g>
    </g>
    <g id="patch_3">
     <path d="M 16.179688 35.554688  L 36.179688 35.554688  L 36.179688 28.554688  L 16.179688 28.554688  z " style="fill: #fefebb; stroke: #444443; stroke-width: 0.4; stroke-linejoin: miter" />
    </g>
    <g id="text_2">
     
     <g style="fill: #444443" transform="translate(39.679688 35.554688) scale(0.1 -0.1)">
      <defs>
       <path id="DejaVuSans-4e" d="M 628 4666  L 1478 4666  L 3547 763  L 3547 4666  L 4159 4666  L 4159 0  L 3309 0  L 1241 3903  L 1241 0  L 628 0  L 628 4666  z " transform="scale(0.015625)" />
       <path id="DejaVuSans-6f" d="M 1959 3097  Q 1497 3097 1228 2736  Q 959 2375 959 1747  Q 959 1119 1226 758  Q 1494 397 1959 397  Q 2419 397 2687 759  Q 2956 1122 2956 1747  Q 2956 2369 2687 2733  Q 2419 3097 1959 3097  z M 1959 3584  Q 2709 3584 3137 3096  Q 3566 2609 3566 1747  Q 3566 888 3137 398  Q 2709 -91 1959 -91  Q 1206 -91 779 398  Q 353 888 353 1747  Q 353 2609 779 3096  Q 1206 3584 1959 3584  z " transform="scale(0.015625)" />
       <path id="DejaVuSans-74" d="M 1172 4494  L 1172 3500  L 2356 3500  L 2356 3053  L 1172 3053  L 1172 1153  Q 1172 725 1289 603  Q 1406 481 1766 481  L 2356 481  L 2356 0  L 1766 0  Q 1100 0 847 248  Q 594 497 594 1153  L 594 3053  L 172 3053  L 172 3500  L 594 3500  L 594 4494  L 1172 4494  z " transform="scale(0.015625)" />
       <path id="DejaVuSans-20" transform="scale(0.015625)" />
       <path id="DejaVuSans-53" d="M 3425 4513  L 3425 3897  Q 3066 4069 2747 4153  Q 2428 4238 2131 4238  Q 1616 4238 1336 4038  Q 1056 3838 1056 3469  Q 1056 3159 1242 3001  Q 1428 2844 1947 2747  L 2328 2669  Q 3034 2534 3370 2195  Q 3706 1856 3706 1288  Q 3706 609 3251 259  Q 2797 -91 1919 -91  Q 1588 -91 1214 -16  Q 841 59 441 206  L 441 856  Q 825 641 1194 531  Q 1563 422 1919 422  Q 2459 422 2753 634  Q 3047 847 3047 1241  Q 3047 1584 2836 1778  Q 2625 1972 2144 2069  L 1759 2144  Q 1053 2284 737 2584  Q 422 2884 422 3419  Q 422 4038 858 4394  Q 1294 4750 2059 4750  Q 2388 4750 2728 4690  Q 3069 4631 3425 4513  z " transform="scale(0.015625)" />
       <path id="DejaVuSans-65" d="M 3597 1894  L 3597 1613  L 953 1613  Q 991 1019 1311 708  Q 1631 397 2203 397  Q 2534 397 2845 478  Q 3156 559 3463 722  L 3463 178  Q 3153 47 2828 -22  Q 2503 -91 2169 -91  Q 1331 -91 842 396  Q 353 884 353 1716  Q 353 2575 817 3079  Q 1281 3584 2069 3584  Q 2775 3584 3186 3129  Q 3597 2675 3597 1894  z M 3022 2063  Q 3016 2534 2758 2815  Q 2500 3097 2075 3097  Q 1594 3097 1305 2825  Q 1016 2553 972 2059  L 3022 2063  z " transform="scale(0.015625)" />
       <path id="DejaVuSans-76" d="M 191 3500  L 800 3500  L 1894 563  L 2988 3500  L 3597 3500  L 2284 0  L 1503 0  L 191 3500  z " transform="scale(0.015625)" />
       <path id="DejaVuSans-72" d="M 2631 2963  Q 2534 3019 2420 3045  Q 2306 3072 2169 3072  Q 1681 3072 1420 2755  Q 1159 2438 1159 1844  L 1159 0  L 581 0  L 581 3500  L 1159 3500  L 1159 2956  Q 1341 3275 1631 3429  Q 1922 3584 2338 3584  Q 2397 3584 2469 3576  Q 2541 3569 2628 3553  L 2631 2963  z " transform="scale(0.015625)" />
      </defs>
      <use xlink:href="#DejaVuSans-4e" />
      <use xlink:href="#DejaVuSans-6f" x="74.804688" />
      <use xlink:href="#DejaVuSans-74" x="135.986328" />
      <use xlink:href="#DejaVuSans-20" x="175.195312" />
      <use xlink:href="#DejaVuSans-53" x="206.982422" />
      <use xlink:href="#DejaVuSans-65" x="270.458984" />
      <use xlink:href="#DejaVuSans-76" x="331.982422" />
      <use xlink:href="#DejaVuSans-65" x="391.162109" />
      <use xlink:href="#DejaVuSans-72" x="452.685547" />
      <use xlink:href="#DejaVuSans-65" x="491.548828" />
     </g>
    </g>
    <g id="patch_4">
     <path d="M 16.179688 50.232812  L 36.179688 50.232812  L 36.179688 43.232812  L 16.179688 43.232812  z " style="fill: #a1dab4; stroke: #444443; stroke-width: 0.4; stroke-linejoin: miter" />
    </g>
    <g id="text_3">
     
     <g style="fill: #444443" transform="translate(39.679688 50.232812) scale(0.1 -0.1)">
      <use xlink:href="#DejaVuSans-53" />
      <use xlink:href="#DejaVuSans-65" x="63.476562" />
      <use xlink:href="#DejaVuSans-76" x="125" />
      <use xlink:href="#DejaVuSans-65" x="184.179688" />
      <use xlink:href="#DejaVuSans-72" x="245.703125" />
      <use xlink:href="#DejaVuSans-65" x="284.566406" />
     </g>
    </g>
   </g>
  </g>
 </g>
</svg></g>
</g>
</svg>